<svg width="32" height="32" viewBox="0 0 32 32" xmlns="http://www.w3.org/2000/svg">
<path d="M21.5263 21.6364H13.4211V12.0909H21.5263V21.6364ZM21.5263 10.7273H13.4211C13.0302 10.7273 12.6554 10.8709 12.379 11.1267C12.1026 11.3824 11.9474 11.7293 11.9474 12.0909V21.6364C11.9474 21.998 12.1026 22.3448 12.379 22.6006C12.6554 22.8563 13.0302 23 13.4211 23H21.5263C21.9171 23 22.292 22.8563 22.5684 22.6006C22.8447 22.3448 23 21.998 23 21.6364V12.0909C23 11.7293 22.8447 11.3824 22.5684 11.1267C22.292 10.8709 21.9171 10.7273 21.5263 10.7273ZM19.3158 8H10.4737C10.0828 8 9.708 8.14367 9.43163 8.3994C9.15526 8.65513 9 9.00198 9 9.36364V18.9091H10.4737V9.36364H19.3158V8Z" fill="currentColor"/>
</svg>
